<svg aria-hidden="true" style="position: absolute; width: 0; height: 0; overflow: hidden;" version="1.1" xmlns="http://www.w3.org/2000/svg" xmlns:xlink="http://www.w3.org/1999/xlink">
    <defs>
        <symbol id="icon-search" viewBox="0 0 32 32">
            <path d="M15.403 25.040c2.159 0 4.178-0.589 5.899-1.611l4.078 5.334c0.482 0.631 1.395 0.759 2.038 0.286s0.774-1.368 0.291-1.999l-4.128-5.399c1.996-2.014 3.225-4.764 3.225-7.796 0-6.178-5.105-11.186-11.403-11.186s-11.403 5.008-11.403 11.186c0 6.178 5.105 11.187 11.403 11.187zM23.895 13.853c0 4.601-3.802 8.33-8.491 8.33s-8.491-3.73-8.491-8.33c0-4.601 3.802-8.33 8.491-8.33s8.491 3.73 8.491 8.33z"></path>
        </symbol>
        <symbol id="icon-game" viewBox="0 0 32 32">
            <path d="M4.485 29.713v-23.727l19.662 10.014-11.136 5.675v-5.675c0-1.261-1.002-2.287-2.245-2.287-1.238 0-2.245 1.021-2.245 2.287v9.369c0 0.795 0.402 1.525 1.062 1.944 0.665 0.419 1.487 0.456 2.185 0.099l18.396-9.369c0.762-0.386 1.238-1.176 1.238-2.042s-0.48-1.656-1.238-2.042l-26.917-13.718c-0.697-0.353-1.52-0.315-2.185 0.104-0.66 0.414-1.062 1.148-1.062 1.944v27.426c0 1.266 1.002 2.287 2.245 2.287 1.238 0 2.24-1.021 2.24-2.287z"></path>
        </symbol>
        <symbol id="icon-left" viewBox="0 0 20 32">
            <path d="M19.787 28.24l-12.24-12.24 12.24-12.24-3.787-3.76-16 16 16 16 3.787-3.76z"></path>
        </symbol>
        <symbol id="icon-right" viewBox="0 0 20 32">
            <path d="M0 28.24l12.24-12.24-12.24-12.24 3.787-3.76 16 16-16 16-3.787-3.76z"></path>
        </symbol>
        <symbol id="icon-close" viewBox="0 0 32 32">
            <path d="M31.29 0.734c-0.947-0.947-2.475-0.947-3.422 0l-11.868 11.844-11.868-11.868c-0.947-0.947-2.476-0.947-3.422 0s-0.947 2.476 0 3.422l11.868 11.868-11.868 11.868c-0.947 0.947-0.947 2.475 0 3.422s2.476 0.947 3.422 0l11.868-11.868 11.868 11.868c0.947 0.947 2.475 0.947 3.422 0s0.946-2.475 0-3.422l-11.868-11.868 11.868-11.868c0.922-0.922 0.922-2.476 0-3.398z"></path>
        </symbol>
    </defs>
</svg>